<svg width="14" height="15" viewBox="0 0 14 15" fill="none" xmlns="http://www.w3.org/2000/svg">
    <linearGradient id="my-gradient" x1="0%" y1="0%" x2="0%" y2="100%">
        <stop offset="0%" stop-color="#51fcf6" />
        <stop offset="50%" stop-color="#48c0fa" />
        <stop offset="100%" stop-color="#415cff" />
    </linearGradient>
    <path d="M7.22633 2V1.08408L6.45592 1.57943C4.75929 2.67031 3.24973 4.41428 3.06797 6.61574C2.85801 6.40198 2.70784 6.1915 2.63827 5.9658L2.38037 5.12906L1.79079 5.77639C0.348176 7.36033 -0.0210279 9.66358 1.38425 11.8822L1.38409 11.8823L1.39188 11.8939C1.51225 12.0727 1.68553 12.3238 1.90342 12.5476C2.52836 13.2628 3.98146 14.5 6.56095 14.5C8.52817 14.5 9.80173 13.7811 10.6042 13.1739C11.4603 12.5699 12.0168 11.5611 12.2682 10.7441L12.2703 10.7372L12.2723 10.7302C13.1322 7.61833 11.4457 4.94742 9.25521 3.52101L8.48237 3.01776V3.94001C8.48237 4.23447 8.41118 4.57108 8.31931 4.89377C7.69326 4.11933 7.22633 3.29199 7.22633 2Z" fill="url(#my-gradient)" stroke="white"/>
</svg>
